<?xml version="1.0" encoding="UTF-8" standalone="no"?>
<!-- Created with Inkscape (http://www.inkscape.org/) -->

<svg
   xmlns:dc="http://purl.org/dc/elements/1.1/"
   xmlns:cc="http://creativecommons.org/ns#"
   xmlns:rdf="http://www.w3.org/1999/02/22-rdf-syntax-ns#"
   xmlns:svg="http://www.w3.org/2000/svg"
   xmlns="http://www.w3.org/2000/svg"
   xmlns:xlink="http://www.w3.org/1999/xlink"
   xmlns:sodipodi="http://sodipodi.sourceforge.net/DTD/sodipodi-0.dtd"
   xmlns:inkscape="http://www.inkscape.org/namespaces/inkscape"
   width="210mm"
   height="297mm"
   id="svg2"
   version="1.1"
   inkscape:version="0.48.2 r9819"
   sodipodi:docname="pompage_tendance_1.svg">
  <sodipodi:namedview
     id="base"
     pagecolor="#ffffff"
     bordercolor="#666666"
     borderopacity="1.0"
     inkscape:pageopacity="1"
     inkscape:pageshadow="2"
     inkscape:zoom="1.183432"
     inkscape:cx="356.50835"
     inkscape:cy="657.99443"
     inkscape:document-units="px"
     inkscape:current-layer="layer1"
     showgrid="false"
     inkscape:window-width="1680"
     inkscape:window-height="1002"
     inkscape:window-x="0"
     inkscape:window-y="0"
     inkscape:window-maximized="1"
     showguides="true"
     inkscape:guide-bbox="true"
     inkscape:snap-grids="true">
    <inkscape:grid
       dotted="true"
       snapvisiblegridlinesonly="true"
       enabled="true"
       visible="true"
       empspacing="5"
       id="grid3958"
       type="xygrid" />
  </sodipodi:namedview>
  <defs
     id="defs4" />
  <metadata
     id="metadata7">
    <rdf:RDF>
      <cc:Work
         rdf:about="">
        <dc:format>image/svg+xml</dc:format>
        <dc:type
           rdf:resource="http://purl.org/dc/dcmitype/StillImage" />
        <dc:title />
      </cc:Work>
    </rdf:RDF>
  </metadata>
  <g
     id="layer1"
     inkscape:groupmode="layer"
     inkscape:label="Calque 1">
    <path
       sodipodi:nodetypes="csc"
       inkscape:connector-curvature="0"
       id="path3326"
       d="m 616.65616,834.15402 c 0.79081,-38.02196 -23.9439,-21.94036 -25.77467,-13.89381 -5.14736,22.62365 -45.20533,17.53514 -45.20533,17.53514"
       style="fill:none;stroke:#666666;stroke-width:4;stroke-linecap:butt;stroke-linejoin:miter;stroke-miterlimit:4;stroke-opacity:1;stroke-dasharray:none" />
    <rect
       style="fill:#666666;fill-opacity:1;stroke:#666666;stroke-width:3.99999952;stroke-linecap:round;stroke-miterlimit:4;stroke-opacity:1;stroke-dasharray:none;stroke-dashoffset:0"
       id="rect4098"
       width="8.4300632"
       height="1.9762745"
       x="548.05377"
       y="837.31909" />
    <rect
       ry="2"
       rx="2"
       y="834.21149"
       x="544.73895"
       height="7.5700321"
       width="8.4300632"
       id="rect4096"
       style="fill:#666666;fill-opacity:1;stroke:#666666;stroke-width:3.99999976;stroke-linecap:round;stroke-miterlimit:4;stroke-opacity:1;stroke-dasharray:none;stroke-dashoffset:0" />
    <text
       sodipodi:linespacing="125%"
       id="text2996"
       y="82.362183"
       x="40"
       style="font-size:64.3887558px;font-style:normal;font-weight:normal;line-height:125%;letter-spacing:0px;word-spacing:0px;fill:#030303;fill-opacity:1;stroke:none;font-family:Bitstream Vera Sans"
       xml:space="preserve"><tspan
         dx="0 6.22823 6.22823 7.1418552 2.3806183 5.9515457 5.9515457"
         style="font-size:59.99158096px;font-style:normal;font-variant:normal;font-weight:300;font-stretch:normal;text-align:start;line-height:125%;writing-mode:lr-tb;text-anchor:start;fill:#030303;fill-opacity:1;font-family:eurofurence light;-inkscape-font-specification:'eurofurence light, Light'"
         y="82.362183"
         x="40"
         id="tspan2998"
         sodipodi:role="line">POMPAGE</tspan></text>
    <text
       xml:space="preserve"
       style="font-size:54.45826721px;font-style:normal;font-variant:normal;font-weight:normal;font-stretch:normal;text-align:start;line-height:125%;letter-spacing:0px;word-spacing:0px;writing-mode:lr-tb;text-anchor:start;fill:#030303;fill-opacity:1;stroke:none;font-family:Zag Regular;-inkscape-font-specification:'Zag Regular,'"
       x="40"
       y="172.36218"
       id="text3111"
       sodipodi:linespacing="125%"><tspan
         dx="0 4.0014606 4.0014606 4.0014606 4.0014606 4.0014606 4.0014606"
         sodipodi:role="line"
         id="tspan3113"
         x="40"
         y="172.36218"
         style="font-size:54.45826721px;font-style:normal;font-variant:normal;font-weight:500;font-stretch:normal;text-align:start;line-height:125%;writing-mode:lr-tb;text-anchor:start;fill:#030303;fill-opacity:1;font-family:GeosansLight;-inkscape-font-specification:GeosansLight Medium">POMPAGE</tspan></text>
    <rect
       transform="matrix(1,0,0,0.90402702,0,-4.445834)"
       style="fill:#666666;fill-opacity:1;stroke:none;filter:url(#filter4514)"
       id="rect4006"
       width="744.63354"
       height="78.738663"
       x="0"
       y="239.62352" />
    <rect
       y="203.62352"
       x="0"
       height="78.738663"
       width="744.63354"
       id="rect3115"
       style="fill:#666666;fill-opacity:1;stroke:none" />
    <text
       xml:space="preserve"
       style="font-size:64.3887558px;font-style:normal;font-weight:normal;line-height:125%;letter-spacing:0px;word-spacing:0px;fill:#ffffff;fill-opacity:1;stroke:none;font-family:Bitstream Vera Sans"
       x="235.55789"
       y="262.36218"
       id="text3950"
       sodipodi:linespacing="125%"><tspan
         sodipodi:role="line"
         id="tspan3952"
         x="235.55789"
         y="262.36218"
         style="font-size:59.99158096px;font-style:normal;font-variant:normal;font-weight:300;font-stretch:normal;text-align:start;line-height:125%;writing-mode:lr-tb;text-anchor:start;fill:#ffffff;fill-opacity:1;font-family:eurofurence light;-inkscape-font-specification:'eurofurence light, Light'"
         dx="0 6.22823 6.22823 8.1422205 2.3806183 5.9515457 5.9515457">POMPAGE</tspan></text>
    <image
       sodipodi:absref="/Users/Gus/Documents/pompage/grafizm/graphiques/v4/recherches/./pompe1.png"
       xlink:href="./pompe1.png"
       y="338.52219"
       x="424.03278"
       id="image3107"
       height="170.914"
       width="319.37723" />
    <image
       sodipodi:absref="/Users/Gus/Documents/pompage/grafizm/graphiques/v4/recherches/./pompe_descriptif.png"
       xlink:href="./pompe_descriptif.png"
       y="364.64822"
       x="18.02"
       id="image3096"
       height="321.05402"
       width="403.00476" />
    <flowRoot
       style="fill:black;stroke:none;stroke-opacity:1;stroke-width:1px;stroke-linejoin:miter;stroke-linecap:butt;fill-opacity:1;font-family:Bitstream Vera Sans;font-style:normal;font-weight:normal;font-size:10;line-height:125%;letter-spacing:0px;word-spacing:0px"
       id="flowRoot4022"
       xml:space="preserve"><flowRegion
         id="flowRegion4024"><rect
           y="452.1431"
           x="441.16101"
           height="60.021908"
           width="27.009859"
           id="rect4026" /></flowRegion><flowPara
         id="flowPara4028" /></flowRoot>    <text
       inkscape:transform-center-y="36.127779"
       inkscape:transform-center-x="-164.35316"
       sodipodi:linespacing="125%"
       id="text4030"
       y="172.36218"
       x="340"
       style="font-size:24px;font-style:normal;font-variant:normal;font-weight:500;font-stretch:normal;text-align:start;line-height:125%;letter-spacing:0px;word-spacing:0px;writing-mode:lr-tb;text-anchor:start;fill:#000000;fill-opacity:1;stroke:none;font-family:GeosansLight;-inkscape-font-specification:GeosansLight Medium"
       xml:space="preserve"><tspan
         y="172.36218"
         x="340"
         id="tspan4032"
         sodipodi:role="line">(GeoSansLight)</tspan></text>
    <text
       sodipodi:linespacing="125%"
       id="text4034"
       y="82.362183"
       x="340"
       style="font-size:10px;font-style:normal;font-weight:normal;line-height:125%;letter-spacing:0px;word-spacing:0px;fill:#000000;fill-opacity:1;stroke:none;font-family:Bitstream Vera Sans"
       xml:space="preserve"><tspan
         style="font-size:24px;font-style:normal;font-variant:normal;font-weight:300;font-stretch:normal;text-align:start;line-height:125%;writing-mode:lr-tb;text-anchor:start;font-family:eurofurence light;-inkscape-font-specification:'eurofurence light, Light'"
         y="82.362183"
         x="340"
         id="tspan4036"
         sodipodi:role="line">(eurofurence)</tspan></text>
    <text
       xml:space="preserve"
       style="font-size:36px;font-style:italic;font-variant:normal;font-weight:normal;font-stretch:normal;text-align:start;line-height:125%;letter-spacing:0px;word-spacing:0px;writing-mode:lr-tb;text-anchor:start;fill:#6c5353;fill-opacity:1;stroke:none;font-family:Georgia;-inkscape-font-specification:Georgia Italic"
       x="333.66864"
       y="722.36218"
       id="text4048"
       sodipodi:linespacing="125%"><tspan
         sodipodi:role="line"
         x="333.66864"
         y="722.36218"
         style="font-size:36px;font-style:italic;font-variant:normal;font-weight:normal;font-stretch:normal;text-align:start;line-height:125%;writing-mode:lr-tb;text-anchor:start;fill:#6c5353;font-family:Georgia;-inkscape-font-specification:Georgia Italic"
         id="tspan4052">... de bien belles pompes</tspan></text>
    <rect
       style="fill:#c03000;fill-opacity:1;stroke:none"
       id="rect4056"
       width="247.60475"
       height="63.728714"
       x="30"
       y="752.36218" />
    <rect
       rx="10"
       transform="matrix(0,1,-1,0,0,0)"
       y="-550"
       x="752.36218"
       height="240"
       width="286.66663"
       id="rect4142"
       style="fill:#dcdcdc;fill-opacity:1;stroke:none" />
    <g
       style="filter:url(#filter4126)"
       id="g4140">
      <rect
         style="fill:#b4af91;fill-opacity:1;stroke:none"
         id="rect4102"
         width="39.814812"
         height="39.814812"
         x="768.28809"
         y="-527.03705"
         transform="matrix(0,1,-1,0,0,0)" />
      <rect
         y="-487.22214"
         x="768.28809"
         height="39.814812"
         width="39.814812"
         id="rect4104"
         style="fill:#787746;fill-opacity:1;stroke:none"
         transform="matrix(0,1,-1,0,0,0)" />
      <rect
         style="fill:#40411e;fill-opacity:1;stroke:none"
         id="rect4106"
         width="39.814812"
         height="39.814812"
         x="768.28809"
         y="-447.40732"
         transform="matrix(0,1,-1,0,0,0)" />
      <rect
         y="-407.59256"
         x="768.28809"
         height="39.814812"
         width="39.814812"
         id="rect4108"
         style="fill:#32331d;fill-opacity:1;stroke:none"
         transform="matrix(0,1,-1,0,0,0)" />
      <rect
         style="fill:#c03000;fill-opacity:1;stroke:none"
         id="rect4110"
         width="39.814812"
         height="39.814812"
         x="768.28809"
         y="-367.77774"
         transform="matrix(0,1,-1,0,0,0)" />
    </g>
    <g
       style="filter:url(#filter4126)"
       id="g4147">
      <rect
         y="-527.03705"
         x="839.95471"
         height="39.814812"
         width="39.814812"
         id="rect4112"
         style="fill:#fff8e3;fill-opacity:1;stroke:none"
         transform="matrix(0,1,-1,0,0,0)" />
      <rect
         style="fill:#cccc9f;fill-opacity:1;stroke:none"
         id="rect4114"
         width="39.814812"
         height="39.814812"
         x="839.95471"
         y="-487.22214"
         transform="matrix(0,1,-1,0,0,0)" />
      <rect
         y="-447.40732"
         x="839.95471"
         height="39.814812"
         width="39.814812"
         id="rect4116"
         style="fill:#33332d;fill-opacity:1;stroke:none"
         transform="matrix(0,1,-1,0,0,0)" />
      <rect
         style="fill:#9fb4cc;fill-opacity:1;stroke:none"
         id="rect4118"
         width="39.814812"
         height="39.814812"
         x="839.95471"
         y="-407.59256"
         transform="matrix(0,1,-1,0,0,0)" />
      <rect
         y="-367.77774"
         x="839.95471"
         height="39.814812"
         width="39.814812"
         id="rect4120"
         style="fill:#db4105;fill-opacity:1;stroke:none"
         transform="matrix(0,1,-1,0,0,0)" />
    </g>
    <g
       style="filter:url(#filter4126)"
       id="g4154">
      <rect
         style="fill:#000000;fill-opacity:1;stroke:none"
         id="rect4122"
         width="39.814812"
         height="39.814812"
         x="911.62146"
         y="-527.03705"
         transform="matrix(0,1,-1,0,0,0)" />
      <rect
         y="-487.22214"
         x="911.62146"
         height="39.814812"
         width="39.814812"
         id="rect4124"
         style="fill:#263248;fill-opacity:1;stroke:none"
         transform="matrix(0,1,-1,0,0,0)" />
      <rect
         style="fill:#7e8aa2;fill-opacity:1;stroke:none"
         id="rect4126"
         width="39.814812"
         height="39.814812"
         x="911.62146"
         y="-447.40732"
         transform="matrix(0,1,-1,0,0,0)" />
      <rect
         y="-407.59256"
         x="911.62146"
         height="39.814812"
         width="39.814812"
         id="rect4128"
         style="fill:#ffffff;fill-opacity:1;stroke:none"
         transform="matrix(0,1,-1,0,0,0)" />
      <rect
         style="fill:#ff9800;fill-opacity:1;stroke:none"
         id="rect4130"
         width="39.814812"
         height="39.814812"
         x="911.62146"
         y="-367.77774"
         transform="matrix(0,1,-1,0,0,0)" />
    </g>
    <g
       transform="translate(0,-1.0080168)"
       style="filter:url(#filter4126)"
       id="g4161">
      <rect
         y="-527.03705"
         x="983.28809"
         height="39.814812"
         width="39.814812"
         id="rect4132"
         style="fill:#36362c;fill-opacity:1;stroke:none"
         transform="matrix(0,1,-1,0,0,0)" />
      <rect
         style="fill:#5d917d;fill-opacity:1;stroke:none"
         id="rect4134"
         width="39.814812"
         height="39.814812"
         x="983.28809"
         y="-487.22214"
         transform="matrix(0,1,-1,0,0,0)" />
      <rect
         y="-447.40732"
         x="983.28809"
         height="39.814812"
         width="39.814812"
         id="rect4136"
         style="fill:#a8ad80;fill-opacity:1;stroke:none"
         transform="matrix(0,1,-1,0,0,0)" />
      <rect
         style="fill:#e6d4a7;fill-opacity:1;stroke:none"
         id="rect4138"
         width="39.814812"
         height="39.814812"
         x="983.28809"
         y="-407.59256"
         transform="matrix(0,1,-1,0,0,0)" />
      <rect
         y="-367.77774"
         x="983.28809"
         height="39.814812"
         width="39.814812"
         id="rect4140"
         style="fill:#825534;fill-opacity:1;stroke:none"
         transform="matrix(0,1,-1,0,0,0)" />
    </g>
    <text
       sodipodi:linespacing="125%"
       id="text4167"
       y="783.97131"
       x="124.82735"
       style="font-size:33.92119217px;font-style:normal;font-weight:normal;line-height:125%;letter-spacing:0px;word-spacing:0px;fill:#ffffff;fill-opacity:1;stroke:none;font-family:Bitstream Vera Sans"
       xml:space="preserve"><tspan
         dx="0 3.2811475 3.2811475 4.2894731 1.2541541 3.1353848 3.1353848"
         style="font-size:31.60468102px;font-style:normal;font-variant:normal;font-weight:300;font-stretch:normal;text-align:start;line-height:125%;writing-mode:lr-tb;text-anchor:start;fill:#ffffff;fill-opacity:1;font-family:eurofurence light;-inkscape-font-specification:'eurofurence light, Light'"
         y="783.97131"
         x="124.82735"
         id="tspan4169"
         sodipodi:role="line">POMPAGE</tspan></text>
    <text
       sodipodi:linespacing="125%"
       id="text4173"
       y="807.6781"
       x="125.35417"
       style="font-size:10.53637314px;font-style:italic;font-variant:normal;font-weight:normal;font-stretch:normal;text-align:start;line-height:125%;letter-spacing:0px;word-spacing:0px;writing-mode:lr-tb;text-anchor:start;fill:#b4af91;fill-opacity:1;stroke:none;font-family:Georgia;-inkscape-font-specification:Georgia Italic"
       xml:space="preserve"><tspan
         id="tspan4175"
         style="font-size:10.53637314px;font-style:italic;font-variant:normal;font-weight:normal;font-stretch:normal;text-align:start;line-height:125%;writing-mode:lr-tb;text-anchor:start;fill:#b4af91;fill-opacity:1;font-family:Georgia;-inkscape-font-specification:Georgia Italic"
         y="807.6781"
         x="125.35417"
         sodipodi:role="line">le webdesign puisé à la source</tspan></text>
    <path
       inkscape:connector-curvature="0"
       id="path4278"
       d="m 31.580456,793.98082 247.604744,0"
       style="fill:none;stroke:#fff8e3;stroke-width:0.99999994;stroke-linecap:butt;stroke-linejoin:miter;stroke-miterlimit:4;stroke-opacity:1;stroke-dasharray:2.99999998, 2.99999998;stroke-dashoffset:0" />
    <path
       inkscape:connector-curvature="0"
       id="path4177"
       d="m 30.000001,752.36959 0,63.72873 54.756209,0 c 5.380689,-10.22704 8.462024,-22.09588 8.462024,-34.76113 0,-10.33453 -2.051221,-20.15158 -5.729152,-28.9676 l -57.489081,0 z"
       style="fill:#32331d;fill-opacity:1;stroke:none" />
    <path
       inkscape:connector-curvature="0"
       id="path4270"
       d="m 66.42046,760.12432 c -1.720349,0 -3.110475,1.39013 -3.110475,3.11049 l 6.220951,0 c 0,-1.72036 -1.391382,-3.11049 -3.110476,-3.11049 z m -6.007661,4.35467 0,1.81296 12.353032,0 0,-1.81296 -12.353032,0 z m 0,3.03938 2.435058,4.08805 -3.12825,19.26718 -1.173094,0 0,-3.7859 0,-1.06645 -1.084223,0 -6.2565,0 0,-2.0618 -1.084223,0 -4.123603,0 -1.066448,0 0,2.0618 -6.274274,0 -1.084223,0 0,1.06645 0,15.35687 0,2.09736 2.079575,0 0.0711,0 1.173094,0 6.985241,10.82443 4.283569,0 0,-10.82443 4.745698,0 0,10.82443 2.879411,0 0,-10.82443 5.509986,0 0,10.82443 4.265795,0 7.003015,-10.82443 1.226416,0 2.097349,0 0,-2.09736 0,-5.36779 0,-1.83073 0,-0.31994 -4.781245,0 0,-2.98606 0,-1.06645 -0.995353,0 -3.483732,-18.23628 2.132897,-5.11895 -3.092702,0 -2.061801,0 1.421932,6.98523 -4.674601,0 1.208642,-6.98523 -1.439705,0 -0.604322,0 -3.110475,0 z m 3.6437,9.26033 4.692375,0 -6.043211,8.10501 1.350836,-8.10501 z m 5.705501,2.04403 1.510804,8.05168 -7.44737,0 5.936566,-8.05168 z m -29.61173,9.68691 15.978959,0 0,13.43726 -15.978959,0 0,-13.43726 z m 21.89775,0.65764 9.686911,0 0.319934,1.70632 -10.291232,0 0.284387,-1.70632 z m -3.323766,4.28357 14.041577,0 0,3.41264 4.958987,0 0,5.08341 -19.000564,0 0,-8.49605 z m -14.69922,11.09108 5.261148,0 0,8.42493 -5.261148,-8.42493 z m 24.155067,0 5.2256,0 -5.2256,8.53161 0,-8.53161 z"
       style="fill:#b4af91;fill-opacity:1;stroke:none" />
    <rect
       y="826.11676"
       x="30"
       height="63.728714"
       width="247.60475"
       id="rect4282"
       style="fill:#33332d;fill-opacity:1;stroke:none" />
    <text
       xml:space="preserve"
       style="font-size:33.92119217px;font-style:normal;font-weight:normal;line-height:125%;letter-spacing:0px;word-spacing:0px;fill:#ffffff;fill-opacity:1;stroke:none;font-family:Bitstream Vera Sans"
       x="124.82735"
       y="857.72589"
       id="text4284"
       sodipodi:linespacing="125%"><tspan
         sodipodi:role="line"
         id="tspan4286"
         x="124.82735"
         y="857.72589"
         style="font-size:31.60468102px;font-style:normal;font-variant:normal;font-weight:300;font-stretch:normal;text-align:start;line-height:125%;writing-mode:lr-tb;text-anchor:start;fill:#ffffff;fill-opacity:1;font-family:eurofurence light;-inkscape-font-specification:'eurofurence light, Light'"
         dx="0 3.2811475 3.2811475 4.2894731 1.2541541 3.1353848 3.1353848">POMPAGE</tspan></text>
    <text
       xml:space="preserve"
       style="font-size:10.53637314px;font-style:italic;font-variant:normal;font-weight:normal;font-stretch:normal;text-align:start;line-height:125%;letter-spacing:0px;word-spacing:0px;writing-mode:lr-tb;text-anchor:start;fill:#9fb4cc;fill-opacity:1;stroke:none;font-family:Georgia;-inkscape-font-specification:Georgia Italic"
       x="125.35417"
       y="881.4328"
       id="text4288"
       sodipodi:linespacing="125%"><tspan
         sodipodi:role="line"
         x="125.35417"
         y="881.4328"
         style="font-size:10.53637314px;font-style:italic;font-variant:normal;font-weight:normal;font-stretch:normal;text-align:start;line-height:125%;writing-mode:lr-tb;text-anchor:start;fill:#9fb4cc;fill-opacity:1;font-family:Georgia;-inkscape-font-specification:Georgia Italic"
         id="tspan4290">le webdesign puisé à la source</tspan></text>
    <path
       style="fill:none;stroke:#9fb4cc;stroke-width:0.99999994;stroke-linecap:butt;stroke-linejoin:miter;stroke-miterlimit:4;stroke-opacity:1;stroke-dasharray:2.99999998, 2.99999998;stroke-dashoffset:0"
       d="m 31.580456,867.73547 247.604744,0"
       id="path4292"
       inkscape:connector-curvature="0" />
    <path
       style="fill:#db4105;fill-opacity:1;stroke:none"
       d="m 30.000001,826.12421 0,63.7287 54.756209,0 c 5.380689,-10.227 8.462024,-22.09587 8.462024,-34.76109 0,-10.33455 -2.051221,-20.15161 -5.729152,-28.96761 l -57.489081,0 z"
       id="path4294"
       inkscape:connector-curvature="0" />
    <path
       style="fill:#cccc9f;fill-opacity:1;stroke:none"
       d="m 66.42046,833.8789 c -1.720349,0 -3.110475,1.39016 -3.110475,3.11051 l 6.220951,0 c 0,-1.72035 -1.391382,-3.11051 -3.110476,-3.11051 z m -6.007661,4.35471 0,1.81296 12.353032,0 0,-1.81296 -12.353032,0 z m 0,3.03937 2.435058,4.08809 -3.12825,19.2671 -1.173094,0 0,-3.78584 0,-1.06646 -1.084223,0 -6.2565,0 0,-2.06186 -1.084223,0 -4.123603,0 -1.066448,0 0,2.06186 -6.274274,0 -1.084223,0 0,1.06646 0,15.35684 0,2.09735 2.079575,0 0.0711,0 1.173094,0 6.985241,10.82448 4.283569,0 0,-10.82448 4.745698,0 0,10.82448 2.879411,0 0,-10.82448 5.509986,0 0,10.82448 4.265795,0 7.003015,-10.82448 1.226416,0 2.097349,0 0,-2.09735 0,-5.36781 0,-1.83074 0,-0.31994 -4.781245,0 0,-2.98606 0,-1.06645 -0.995353,0 -3.483732,-18.23623 2.132897,-5.11896 -3.092702,0 -2.061801,0 1.421932,6.98522 -4.674601,0 1.208642,-6.98522 -1.439705,0 -0.604322,0 -3.110475,0 z m 3.6437,9.26034 4.692375,0 -6.043211,8.10503 1.350836,-8.10503 z m 5.705501,2.04402 1.510804,8.05173 -7.44737,0 5.936566,-8.05173 z m -29.61173,9.68686 15.978959,0 0,13.43729 -15.978959,0 0,-13.43729 z m 21.89775,0.65775 9.686911,0 0.319934,1.70622 -10.291232,0 0.284387,-1.70622 z m -3.323766,4.28348 14.041577,0 0,3.41264 4.958987,0 0,5.08342 -19.000564,0 0,-8.49606 z m -14.69922,11.09109 5.261148,0 0,8.42497 -5.261148,-8.42497 z m 24.155067,0 5.2256,0 -5.2256,8.53161 0,-8.53161 z"
       id="path4296"
       inkscape:connector-curvature="0" />
    <rect
       style="fill:#263248;fill-opacity:1;stroke:none"
       id="rect4298"
       width="247.60475"
       height="63.728714"
       x="30"
       y="899.87134" />
    <text
       sodipodi:linespacing="125%"
       id="text4300"
       y="931.48047"
       x="124.82735"
       style="font-size:33.92119217px;font-style:normal;font-weight:normal;line-height:125%;letter-spacing:0px;word-spacing:0px;fill:#ffffff;fill-opacity:1;stroke:none;font-family:Bitstream Vera Sans"
       xml:space="preserve"><tspan
         dx="0 3.2811475 3.2811475 4.2894731 1.2541541 3.1353848 3.1353848"
         style="font-size:31.60468102px;font-style:normal;font-variant:normal;font-weight:300;font-stretch:normal;text-align:start;line-height:125%;writing-mode:lr-tb;text-anchor:start;fill:#ffffff;fill-opacity:1;font-family:eurofurence light;-inkscape-font-specification:'eurofurence light, Light'"
         y="931.48047"
         x="124.82735"
         id="tspan4302"
         sodipodi:role="line">POMPAGE</tspan></text>
    <text
       sodipodi:linespacing="125%"
       id="text4304"
       y="955.18738"
       x="125.35417"
       style="font-size:10.53637314px;font-style:italic;font-variant:normal;font-weight:normal;font-stretch:normal;text-align:start;line-height:125%;letter-spacing:0px;word-spacing:0px;writing-mode:lr-tb;text-anchor:start;fill:#ff9800;fill-opacity:1;stroke:none;font-family:Georgia;-inkscape-font-specification:Georgia Italic"
       xml:space="preserve"><tspan
         id="tspan4306"
         style="font-size:10.53637314px;font-style:italic;font-variant:normal;font-weight:normal;font-stretch:normal;text-align:start;line-height:125%;writing-mode:lr-tb;text-anchor:start;fill:#ff9800;fill-opacity:1;font-family:Georgia;-inkscape-font-specification:Georgia Italic"
         y="955.18738"
         x="125.35417"
         sodipodi:role="line">le webdesign puisé à la source</tspan></text>
    <path
       inkscape:connector-curvature="0"
       id="path4308"
       d="m 31.580456,941.4901 247.604744,0"
       style="fill:none;stroke:#7e8aa2;stroke-width:0.99999994;stroke-linecap:butt;stroke-linejoin:miter;stroke-miterlimit:4;stroke-opacity:1;stroke-dasharray:2.99999998, 2.99999998;stroke-dashoffset:0" />
    <path
       inkscape:connector-curvature="0"
       id="path4310"
       d="m 30.000001,899.87878 0,63.72876 54.756209,0 c 5.380689,-10.22701 8.462024,-22.09588 8.462024,-34.76111 0,-10.33457 -2.051221,-20.15165 -5.729152,-28.96765 l -57.489081,0 z"
       style="fill:#7e8aa2;fill-opacity:1;stroke:none" />
    <path
       inkscape:connector-curvature="0"
       id="path4312"
       d="m 66.42046,907.63354 c -1.720349,0 -3.110475,1.39017 -3.110475,3.11048 l 6.220951,0 c 0,-1.72031 -1.391382,-3.11048 -3.110476,-3.11048 z m -6.007661,4.35468 0,1.81297 12.353032,0 0,-1.81297 -12.353032,0 z m 0,3.03939 2.435058,4.08806 -3.12825,19.26712 -1.173094,0 0,-3.7859 0,-1.06645 -1.084223,0 -6.2565,0 0,-2.06181 -1.084223,0 -4.123603,0 -1.066448,0 0,2.06181 -6.274274,0 -1.084223,0 0,1.06645 0,15.3569 0,2.09736 2.079575,0 0.0711,0 1.173094,0 6.985241,10.82438 4.283569,0 0,-10.82438 4.745698,0 0,10.82438 2.879411,0 0,-10.82438 5.509986,0 0,10.82438 4.265795,0 7.003015,-10.82438 1.226416,0 2.097349,0 0,-2.09736 0,-5.3678 0,-1.83075 0,-0.31993 -4.781245,0 0,-2.98607 0,-1.06645 -0.995353,0 -3.483732,-18.23622 2.132897,-5.11896 -3.092702,0 -2.061801,0 1.421932,6.98525 -4.674601,0 1.208642,-6.98525 -1.439705,0 -0.604322,0 -3.110475,0 z m 3.6437,9.26035 4.692375,0 -6.043211,8.10503 1.350836,-8.10503 z m 5.705501,2.04393 1.510804,8.05181 -7.44737,0 5.936566,-8.05181 z m -29.61173,9.68693 15.978959,0 0,13.43729 -15.978959,0 0,-13.43729 z m 21.89775,0.65765 9.686911,0 0.319934,1.70632 -10.291232,0 0.284387,-1.70632 z m -3.323766,4.28358 14.041577,0 0,3.41264 4.958987,0 0,5.08342 -19.000564,0 0,-8.49606 z m -14.69922,11.0911 5.261148,0 0,8.42486 -5.261148,-8.42486 z m 24.155067,0 5.2256,0 -5.2256,8.53161 0,-8.53161 z"
       style="fill:#202020;fill-opacity:1;stroke:none" />
    <rect
       y="973.62592"
       x="30"
       height="63.728714"
       width="247.60475"
       id="rect4314"
       style="fill:#36362c;fill-opacity:1;stroke:none" />
    <text
       xml:space="preserve"
       style="font-size:33.92119217px;font-style:normal;font-weight:normal;line-height:125%;letter-spacing:0px;word-spacing:0px;fill:#ffffff;fill-opacity:1;stroke:none;font-family:Bitstream Vera Sans"
       x="124.82735"
       y="1005.2351"
       id="text4316"
       sodipodi:linespacing="125%"><tspan
         sodipodi:role="line"
         id="tspan4318"
         x="124.82735"
         y="1005.2351"
         style="font-size:31.60468102px;font-style:normal;font-variant:normal;font-weight:300;font-stretch:normal;text-align:start;line-height:125%;writing-mode:lr-tb;text-anchor:start;fill:#ffffff;fill-opacity:1;font-family:eurofurence light;-inkscape-font-specification:'eurofurence light, Light'"
         dx="0 3.2811475 3.2811475 4.2894731 1.2541541 3.1353848 3.1353848">POMPAGE</tspan></text>
    <text
       xml:space="preserve"
       style="font-size:10.53637314px;font-style:italic;font-variant:normal;font-weight:normal;font-stretch:normal;text-align:start;line-height:125%;letter-spacing:0px;word-spacing:0px;writing-mode:lr-tb;text-anchor:start;fill:#a8ad80;fill-opacity:1;stroke:none;font-family:Georgia;-inkscape-font-specification:Georgia Italic"
       x="125.35417"
       y="1028.942"
       id="text4320"
       sodipodi:linespacing="125%"><tspan
         sodipodi:role="line"
         x="125.35417"
         y="1028.942"
         style="font-size:10.53637314px;font-style:italic;font-variant:normal;font-weight:normal;font-stretch:normal;text-align:start;line-height:125%;writing-mode:lr-tb;text-anchor:start;fill:#a8ad80;fill-opacity:1;font-family:Georgia;-inkscape-font-specification:Georgia Italic"
         id="tspan4322">le webdesign puisé à la source</tspan></text>
    <path
       style="fill:none;stroke:#5d917d;stroke-width:0.99999994;stroke-linecap:butt;stroke-linejoin:miter;stroke-miterlimit:4;stroke-opacity:1;stroke-dasharray:2.99999998, 2.99999998;stroke-dashoffset:0"
       d="m 31.580456,1015.2446 247.604744,0"
       id="path4324"
       inkscape:connector-curvature="0" />
    <path
       style="fill:#825534;fill-opacity:1;stroke:none"
       d="m 30.000001,973.63341 0,63.72879 54.756209,0 c 5.380689,-10.2271 8.462024,-22.0959 8.462024,-34.7611 0,-10.33462 -2.051221,-20.15169 -5.729152,-28.96769 l -57.489081,0 z"
       id="path4326"
       inkscape:connector-curvature="0" />
    <path
       style="fill:#202020;fill-opacity:1;stroke:none"
       d="m 66.42046,981.38817 c -1.720349,0 -3.110475,1.39006 -3.110475,3.11048 l 6.220951,0 c 0,-1.72042 -1.391382,-3.11048 -3.110476,-3.11048 z m -6.007661,4.35467 0,1.81297 12.353032,0 0,-1.81297 -12.353032,0 z m 0,3.03929 2.435058,4.08816 -3.12825,19.26711 -1.173094,0 0,-3.7859 0,-1.0664 -1.084223,0 -6.2565,0 0,-2.0618 -1.084223,0 -4.123603,0 -1.066448,0 0,2.0618 -6.274274,0 -1.084223,0 0,1.0664 0,15.3569 0,2.0974 2.079575,0 0.0711,0 1.173094,0 6.985241,10.8244 4.283569,0 0,-10.8244 4.745698,0 0,10.8244 2.879411,0 0,-10.8244 5.509986,0 0,10.8244 4.265795,0 7.003015,-10.8244 1.226416,0 2.097349,0 0,-2.0974 0,-5.3678 0,-1.8307 0,-0.3199 -4.781245,0 0,-2.9861 0,-1.0665 -0.995353,0 -3.483732,-18.2363 2.132897,-5.11897 -3.092702,0 -2.061801,0 1.421932,6.98536 -4.674601,0 1.208642,-6.98536 -1.439705,0 -0.604322,0 -3.110475,0 z m 3.6437,9.26035 4.692375,0 -6.043211,8.10502 1.350836,-8.10502 z m 5.705501,2.04402 1.510804,8.0517 -7.44737,0 5.936566,-8.0517 z m -29.61173,9.687 15.978959,0 0,13.4373 -15.978959,0 0,-13.4373 z m 21.89775,0.6576 9.686911,0 0.319934,1.7063 -10.291232,0 0.284387,-1.7063 z m -3.323766,4.2836 14.041577,0 0,3.4126 4.958987,0 0,5.0835 -19.000564,0 0,-8.4961 z m -14.69922,11.0911 5.261148,0 0,8.4249 -5.261148,-8.4249 z m 24.155067,0 5.2256,0 -5.2256,8.5316 0,-8.5316 z"
       id="path4328"
       inkscape:connector-curvature="0" />
    <path
       inkscape:connector-curvature="0"
       id="path4330"
       d="m 0,212.36218 750,0"
       style="fill:none;stroke:#ffffff;stroke-width:1;stroke-linecap:butt;stroke-linejoin:miter;stroke-miterlimit:4;stroke-opacity:0.50196078;stroke-dasharray:1, 1;stroke-dashoffset:0;marker-start:none" />
    <path
       style="fill:none;stroke:#ffffff;stroke-width:1;stroke-linecap:butt;stroke-linejoin:miter;stroke-miterlimit:4;stroke-opacity:0.50196078;stroke-dasharray:1, 1;stroke-dashoffset:0;marker-start:none"
       d="m 0,272.36218 750,0"
       id="path4512"
       inkscape:connector-curvature="0" />
    <path
       style="fill:#666666;fill-opacity:1"
       inkscape:connector-curvature="0"
       d="m 718.51226,1029.3542 h -44.79094 l -4.79078,-25.4604 c 0,-3.4488 -2.81387,-6.21934 -6.25977,-6.21934 h -32.84572 c -3.44879,0 -6.25977,2.77054 -6.25977,6.21934 l -1.88168,9.9972 c -1.85571,-5.2497 -3.12844,-12.7418 -3.12844,-23.44023 0,-6.36366 0,-86.92689 0,-135.34266 h 5.43437 v 143.35135 c 1.19192,-1.60463 3.07937,-2.6407 5.22945,-2.6407 h 34.3378 c 2.12699,0 4.03465,1.03607 5.22946,2.6407 V 822.99254 c 0,-5.60175 -4.56568,-10.14722 -10.14723,-10.14722 h -3.16018 v -41.39987 c 2.70708,0 5.60175,0 8.23379,0 5.11114,0 5.11114,-2.16451 13.58736,-2.16451 8.03755,0 11.77494,2.16451 23.8125,2.16451 16.53686,0 18.78795,-6.87449 18.78795,-10.53396 0,-4.04041 -2.2482,-10.28864 -18.78795,-10.28864 -6.02888,0 -17.68838,1.84128 -23.46907,1.84128 -8.81965,0 -8.73885,-1.84128 -13.93079,-1.84128 -4.51661,0 -14.83988,0 -17.32474,0 0,0 -0.20491,0 -0.56277,0 -2.48197,0 -12.78793,0 -17.32474,0 -5.17174,0 -5.11113,1.84128 -13.93079,1.84128 -5.76337,0 -17.44307,-1.84128 -23.46618,-1.84128 -16.53975,0 -18.79084,6.8716 -18.79084,10.28864 0,3.65947 2.25109,10.53396 18.79084,10.53396 12.05199,0 15.79227,-2.16451 23.82981,-2.16451 8.45603,0 8.45603,2.16451 13.56716,2.16451 2.79943,0 5.93941,0 8.79368,0 v 41.39987 h -3.16018 c -5.60176,0 -10.14434,4.54547 -10.14434,10.14722 v 25.34209 h -5.43437 c 0,-2.73882 0,-4.25687 0,-4.25687 1.32468,-0.90043 2.17606,-2.40405 2.17606,-4.12123 v -7.75472 c 0,-2.76191 -2.21935,-2.46177 -4.98126,-2.46177 -2.76192,0 -4.99858,0.55989 -4.99858,3.32181 v 6.89468 c 0,1.7143 0.85137,3.22368 2.17605,4.12123 0,0 0,1.51805 0,4.25687 h -2.17605 v 6.77059 h 2.17605 c 0,48.04059 0,126.02372 0,135.34266 0,17.69992 3.49497,26.66682 7.30451,31.18052 l -1.46321,7.7258 h -44.76785 c -2.34633,0 -4.2309,1.8644 -4.2309,4.2136 0,2.3492 1.88457,4.2136 4.2309,4.2136 h 50.60625 43.28444 50.62069 c 2.3117,0 4.21358,-1.8644 4.21358,-4.2136 0,-2.3492 -1.90188,-4.2136 -4.21358,-4.2136 z"
       id="path4563" />
    <path
       transform="matrix(0.21462866,0.04842124,0.04836477,-0.2145198,521.07394,279.99905)"
       inkscape:transform-center-y="2.592933"
       inkscape:transform-center-x="-0.35043492"
       d="m 147.42412,220.7863 -10.13913,49.82649 -25.04012,-44.25464 -50.520972,5.75434 34.350845,-37.49 -21.084546,-46.27011 46.270103,21.08455 37.49001,-34.35085 -5.75435,50.52097 44.25465,25.04012 z"
       inkscape:randomized="0"
       inkscape:rounded="0"
       inkscape:flatsided="false"
       sodipodi:arg2="1.4137167"
       sodipodi:arg1="0.78539816"
       sodipodi:r2="72.138756"
       sodipodi:r1="30.298279"
       sodipodi:cy="199.36218"
       sodipodi:cx="126"
       sodipodi:sides="5"
       id="path4853"
       style="fill:#b3b3b3;fill-opacity:1;stroke:none"
       sodipodi:type="star" />
    <path
       sodipodi:type="star"
       style="fill:#b3b3b3;fill-opacity:1;stroke:none;"
       id="path4855"
       sodipodi:sides="5"
       sodipodi:cx="126"
       sodipodi:cy="199.36218"
       sodipodi:r1="30.298279"
       sodipodi:r2="72.138756"
       sodipodi:arg1="0.78539816"
       sodipodi:arg2="1.4137167"
       inkscape:flatsided="false"
       inkscape:rounded="0"
       inkscape:randomized="0"
       d="m 147.42412,220.7863 -10.13913,49.82649 -25.04012,-44.25464 -50.520972,5.75434 34.350845,-37.49 -21.084546,-46.27011 46.270103,21.08455 37.49001,-34.35085 -5.75435,50.52097 44.25465,25.04012 z"
       inkscape:transform-center-x="0.35043497"
       inkscape:transform-center-y="2.592933"
       transform="matrix(-0.21462866,0.04842124,-0.04836477,-0.2145198,219.57127,280.48545)" />
    <path
       inkscape:connector-curvature="0"
       id="rect4272"
       d="m 327.96875,768.28125 0,39.8125 39.8125,0 39.8125,0 39.8125,0 39.8125,0 39.8125,0 0,-39.8125 -39.8125,0 -39.8125,0 -39.8125,0 -39.8125,0 -39.8125,0 z"
       style="fill:none;stroke:#808080;stroke-width:3;stroke-miterlimit:4;stroke-opacity:1;stroke-dasharray:none;stroke-linejoin:round;stroke-linecap:round" />
    <path
       style="fill:none;stroke:#808080;stroke-width:3;stroke-linecap:round;stroke-linejoin:round;stroke-miterlimit:4;stroke-opacity:1;stroke-dasharray:none"
       d="m 327.96875,839.28125 0,39.8125 39.8125,0 39.8125,0 39.8125,0 39.8125,0 39.8125,0 0,-39.8125 -39.8125,0 -39.8125,0 -39.8125,0 -39.8125,0 -39.8125,0 z"
       id="path4293"
       inkscape:connector-curvature="0" />
    <path
       inkscape:connector-curvature="0"
       id="path4295"
       d="m 327.96875,911.28125 0,39.8125 39.8125,0 39.8125,0 39.8125,0 39.8125,0 39.8125,0 0,-39.8125 -39.8125,0 -39.8125,0 -39.8125,0 -39.8125,0 -39.8125,0 z"
       style="fill:none;stroke:#808080;stroke-width:3;stroke-linecap:round;stroke-linejoin:round;stroke-miterlimit:4;stroke-opacity:1;stroke-dasharray:none" />
    <path
       style="fill:none;stroke:#808080;stroke-width:3;stroke-linecap:round;stroke-linejoin:round;stroke-miterlimit:4;stroke-opacity:1;stroke-dasharray:none"
       d="m 327.96875,982.28125 0,39.81245 39.8125,0 39.8125,0 39.8125,0 39.8125,0 39.8125,0 0,-39.81245 -39.8125,0 -39.8125,0 -39.8125,0 -39.8125,0 -39.8125,0 z"
       id="path4297"
       inkscape:connector-curvature="0" />
    <image
       sodipodi:absref="/Users/Gus/Documents/pompage/grafizm/graphiques/v4/recherches/./pompe3.png"
       xlink:href="./pompe3.png"
       y="438.51047"
       x="515.37189"
       id="image3118"
       height="114.01019"
       width="263.1824"
       transform="matrix(0.98982199,0.14231103,-0.14231103,0.98982199,0,0)" />
    <flowRoot
       xml:space="preserve"
       id="flowRoot3933"
       style="font-size:40px;font-style:normal;font-weight:normal;line-height:125%;letter-spacing:0px;word-spacing:0px;fill:#6c5353;fill-opacity:0.91764706;stroke:none;font-family:Sans"
       transform="translate(61.685,-54.925)"><flowRegion
         id="flowRegion3935"><rect
           id="rect3937"
           width="228.15001"
           height="199.41998"
           x="-23.66"
           y="418.61218"
           style="fill:#6c5353;fill-opacity:0.91764706" /></flowRegion><flowPara
         id="flowPara3939"
         style="font-size:40px;font-style:italic;font-variant:normal;font-weight:normal;font-stretch:normal;text-align:start;line-height:125%;writing-mode:lr-tb;text-anchor:start;fill:#6c5353;fill-opacity:0.91764706;font-family:Georgia;-inkscape-font-specification:Georgia Italic">Trouver chaussure à son pied</flowPara></flowRoot>  </g>
</svg>
